<?xml version="1.0" standalone="no"?>
<svg width="600" height="300" version="1.2" baseProfile="tiny" 
     xmlns="http://www.w3.org/2000/svg"
     xmlns:xlink="http://www.w3.org/1999/xlink"
     xmlns:ev="http://www.w3.org/2001/xml-events">
  <!-- INDEX: Incompatible New Desktop Environment for X11 -->
  <defs>
    <g id="aCalendar">
      <use xlink:href="./vsw.svg#windowFrame"/>
      <path fill="url(./gradients.svg#greylight)"
            stroke="url(./gradients.svg#strokeColor)"
            d="M 3,51
               V 23
               H 8
               C 14.5,23 15.5,3 23,3
               H 123
               C 129.5,3 130.5,23 137.5,23
               H 597
               V 51
               H 3"/>
      <g transform="translate(25,5)">
        <use xlink:href="./fsw.svg#documentIcon"/>
        <text x="19.5" y="11.5" font-family="sans" font-size="12"
              stroke="none" fill="black">Calendar</text>
        <use x="89.5" y="5.5" xlink:href="./fsw.svg#bigArrowDown"/>
      </g>
      <rect x="3" y="51" width="594" height="231"
            stroke="url(./gradients.svg#strokeColor)"
            fill="url(./gradients.svg#textAreaFill)"/>
      <g transform="translate(3,51)" stroke="#dddddd">
        <path d="M0,46 H594"/>
        <path d="M0,92 H594"/>
        <path d="M0,138 H594"/>
        <path d="M0,184 H594"/>
        <path d="M84.86,0 V231"/>
        <path d="M169.71,0 V231"/>
        <path d="M254.57,0 V231"/>
        <path d="M339.43,0 V231"/>
        <path d="M424.29,0 V231"/>
        <path d="M509.14,0 V231"/>
      </g>
      <g transform="translate(3,51)" stroke="none" fill="#aaa" font-size="24"
         text-anchor="end" font-family="sans">
        <text x="84.86" y="23" fill="#dddddd">30</text>
        <text x="169.71" y="23" fill="#dddddd">31</text>
        <text x="254.57" y="23">1</text>
        <text x="339.43" y="23">2</text>
        <text x="424.29" y="23">3</text>
        <text x="509.14" y="23">4</text>
        <text x="594" y="23">5</text>
        <text x="84.86" y="69">6</text>
        <text x="169.71" y="69">7</text>
        <text x="254.57" y="69">8</text>
        <text x="339.43" y="69">9</text>
        <text x="424.29" y="69">10</text>
        <text x="509.14" y="69">11</text>
        <text x="594" y="69">12</text>
        <text x="84.86" y="115">13</text>
        <text x="169.71" y="115">14</text>
        <text x="254.57" y="115">15</text>
        <text x="339.43" y="115">16</text>
        <text x="424.29" y="115">17</text>
        <text x="509.14" y="115">18</text>
        <text x="594" y="115">19</text>
        <text x="84.86" y="161">20</text>
        <text x="169.71" y="161">21</text>
        <text x="254.57" y="161">22</text>
        <text x="339.43" y="161">23</text>
        <text x="424.29" y="161">24</text>
        <text x="509.14" y="161">25</text>
        <text x="594" y="161">26</text>
        <text x="84.86" y="207">27</text>
        <text x="169.71" y="207">28</text>
        <text x="254.57" y="207" fill="#dddddd">1</text>
        <text x="339.43" y="207" fill="#dddddd">2</text>
        <text x="424.29" y="207" fill="#dddddd">3</text>
        <text x="509.14" y="207" fill="#dddddd">4</text>
        <text x="594" y="207" fill="#dddddd">5</text>
      </g>
    </g>
  </defs>
  <use x="0.5" y="0.5" xlink:href="#aCalendar"/>
</svg>
